<?xml version="1.0" encoding="UTF-8"?>
<svg xmlns="http://www.w3.org/2000/svg" xmlns:xlink="http://www.w3.org/1999/xlink" width="917.411" height="365.639" viewBox="0 0 917.411 365.639">
  <defs>
    <clipPath id="clip-path">
      <path id="Path_65" data-name="Path 65" d="M177.861,942.509c-.162-.271-9.225-8.684-18.058,1,0,0-4.324,6.147-5.124,16.659,0,0,.218,12.944,8.684,19.178a2.386,2.386,0,0,0,2.645-1.481s5.013-17.891,12.01-31.279a3.984,3.984,0,0,0-.157-4.072m-13.119,76.914c-.306-.074-12.645.515-11.939,13.61,0,0,1.147,7.606,8.073,15.542,0,0,9.9,9.829,20.266,8.142a2.4,2.4,0,0,0,.8-2.93s-9.553-17.244-14.188-31.625A3.976,3.976,0,0,0,164.742,1019.423Zm33.993,55.622c-.29.123-11.275,8.255-2.973,18.394a28.522,28.522,0,0,0,17.069,7.4s12.74,1.975,20.1-5.533a2.4,2.4,0,0,0-1.086-2.834s-16.84-8.157-29.069-17A3.964,3.964,0,0,0,198.735,1075.045Zm134.9-.174c.3.1,9.335,7.518,2.333,17.579a39.152,39.152,0,0,1-16.555,8.494s-12.166,1.253-20-5.761a2.4,2.4,0,0,1,.9-2.9s17.6-6.767,29.224-16.389C329.537,1075.9,331.487,1073.905,333.635,1074.871Zm32.812-54.6c.306-.073,12.4.159,10.972,13.516a35.548,35.548,0,0,1-8.984,16.132s-7.863,6.956-17.647,6.18a2.394,2.394,0,0,1-.795-2.929s10.75-15.08,13.547-29.83C363.54,1023.343,364.116,1020.616,366.447,1020.274Zm-12.312-76.667c.177-.26,9.286-8.229,17.19,2.621a35.566,35.566,0,0,1,4.166,18s-1.26,11.464-7.8,16.567a2.387,2.387,0,0,1-2.553-1.634s-3.276-18.514-11.1-31.319C354.041,947.838,352.638,945.429,354.135,943.607Zm-54.109-43.746s.355-13.65,15.043-9.852c0,0,9.357,3.442,14.333,11.514,0,0,6.278,9.615,4.145,17.685,0,0-.6,1.272-2.44.66,0,0-14.38-12.212-28.47-16.768C302.637,903.1,300.039,902.2,300.026,899.861Zm-67.44-.654c.037-.312-1.487-12.859-14.384-10.623,0,0-7.175,2.209-14.23,10.029,0,0-6.843,6.845-5.792,19.483a2.112,2.112,0,0,0,2.852.79c.9-1.172,14.935-13.215,28.872-17.13C229.9,901.756,232.518,901.566,232.586,899.207Zm57.1-.642c.937-.107,2.505-.729,1.6-3.831,0,0-2.671-8.416,1.962-14.413,0,0,10.169-9.867,4.7-23.281a8.088,8.088,0,0,0-8.11-5.74s-1.8-.257-1.029-3.223c0,0,1-2.419-2.349-4.9,0,0-3.058-2.708.032-3.354,0,0,5.47.484,12.582,7.771A47.331,47.331,0,0,1,309.366,865s.838,4.16,3.669,3c0,0,1.577-1,3.315,1.451a26.442,26.442,0,0,0,3.5,3.043c2.75,1.962,6.282,3.931,7.185,4.534,6.444,2.821,25.613,21.164,13.859,49.093a7.329,7.329,0,0,0,.178,2.965q3.163,3.483,6,7.253c.827.422,2.091.434,3.25-2.135a21.923,21.923,0,0,1,15.858-10.364s14.067-4.145,13.516-17.965c0,0-1.481-4.068-3.412-5.744,0,0,4.248-2.709,3.346-6.192,0,0-2.574-7.738,2.832-2.45,0,0,8.577,11.555-.166,33.9a2.247,2.247,0,0,0,1.5,2.634s2.611.4,1.955,3.687c0,0,.2,5.486,3.966,13.418a37.622,37.622,0,0,1-4.4,30.677s-4.423,8.281-17.161,15.064a2.3,2.3,0,0,0-.911,1.469c.074,1.586.116,3.181.116,4.784a101.963,101.963,0,0,1-.807,12.822c.04.529.411,2.876,3.782,1.853,0,0,9.181-3.91,15.951.46,0,0,9.512,9.363,23.962,1.154,0,0,2.967-1.875,2.774-6.981,0,0-.646-2.714,3.548-2.2,0,0,2.258.646,5.16-3.814a1.871,1.871,0,0,1,2.407-.478s.9.752-.021,2.153c0,0-3.76,10.627-9.071,14.884s-7.966,6.356-14.978,9.48c0,0-1.688.78-.13,5.2,0,0-3.636,2.6-7.4,12.622,0,0-12.6,28.236-44.543,20.559,0,0-5.066-2.255-7.068.72,0,0-3.315,3.113-.415,4.5,0,0,9.461,2.561,12.223,6.92,0,0,2.339,2.78,4.137,8.724,0,0,4.044,9.816,16.986,10.716a8.321,8.321,0,0,0,7.1-4.773s1.617-1.35,3.235.811c0,0,1.438,3.512,6.021.99,0,0,2.157-1.351,2.337.631,0,0-.809,3.152-9.526,6.575a40.428,40.428,0,0,1-20.313,1.44s-7.01-1.8-7.46.45c-.411,1.354.306,2.794-3.864,2.972,0,0-2.3.284-11.857,5.894,0,0-15.555,9.719-35.922-1.1,0,0-6.492-3.844-9.916-8.1,0,0-3.719-4.2-3.541-4.791,0,0-.746-1.379-3.594-1.022q-1.672.348-3.364.642a3.234,3.234,0,0,0-2.133,1.917,23.775,23.775,0,0,0-1.148,3.839,15.878,15.878,0,0,1-5.59,7.718s-1.9,1.211-1.359,2.831c0,0,5.209,3.034,5.973,8.254,0,0,2.807,11.834-9.91,15.5,0,0-9.17,2.516-14.465-6.892a12.868,12.868,0,0,1,4.825-16.7,2.357,2.357,0,0,0-.736-2.144s-4.739-4.038-6.045-9.222c0,0-.354-3.625-2.608-4.787q-2.355-.361-4.673-.831a3.728,3.728,0,0,0-3.011,1.471s-5.174,7.312-9.205,9.931c0,0-20.519,16.254-44.677,2,0,0-2.82-3.316-10.423-4.176,0,0-1.6-.369-2.452-3.441,0,0-18.149,2.458-24.894.123,0,0-9.441-2.458-12.385-7.495,0,0-.428-1.018,2.3-.443a5.914,5.914,0,0,0,7.054-1.841s.989-1.129,2.275.184c0,0,3.325,6.5,10.019,3.843,0,0,4.985-.4,11.8-6.469,0,0,2.855-1.87,5.865-10.164,0,0,1.737-5.916,10.594-8.526,0,0,5.518-.867,4.581-3.649q-1.56-1.6-3.05-3.264a4.59,4.59,0,0,0-3.326-.047s-9.435,3.48-18,1.623a38.918,38.918,0,0,1-26.445-15.328s-4.422-6.512-5.43-10.127a22.262,22.262,0,0,0-4.086-7.179s-2.609-1.923-1.655-4.02c0,0,.523-1.757-.492-2.405s-6.371-3.836-7.131-4.459c0,0-9.806-6.088-13.052-11.555,0,0-4.356-6.627-4.576-9.425,0,0-1.135-1.56-1.437-1.422,0,0-.822-1.484,1.454-1.676a2.6,2.6,0,0,1,2.083,1.209s2.221,4.011,4.772,3.9a3.63,3.63,0,0,0,1.453-.33,1.91,1.91,0,0,1,2.358.852s.173,4.187,1.717,6.557c0,0,4.313,7.3,18.717,4.636,0,0,2.341-.476,7.856-3.617a15.133,15.133,0,0,1,11.746-2.068s5.671,1.407,5.846,1.8c0,0,1.818.495,2.785-.583a101.963,101.963,0,0,1-.942-13.81c0-2.1.071-4.179.2-6.247a5.114,5.114,0,0,0-2.441-2s-15.788-9.245-19.057-20.53c0,0-5.947-15.007-.58-27.393a38.931,38.931,0,0,0,3.458-13.832c.479-1.1,3.248-1.6,3-2.112a4.7,4.7,0,0,0-.043-2.631,21.911,21.911,0,0,1-1.822-6.059s-5.83-17.669,3.222-28.6c0,0,1.507-.685,1.467,1.992,0,0-.97,5.017,1.425,6.029,0,0,2.853.656.979,2.966,0,0-3.7,3.992-2.785,7.456a20.11,20.11,0,0,0,5.867,10.833s4.532,4.5,8.029,4.721c0,0,8.84,1.69,11.829,5.036a41.73,41.73,0,0,1,5.067,7.777s1.321,1.826,3.1,1q2.97-3.867,6.293-7.431a4.776,4.776,0,0,0-.21-3.68c-1.182-2.185-11.4-34.767,15.11-49.071,0,0,9.687-4.6,10.877-8.343a2.215,2.215,0,0,1,3.185-.724s2.21.937,3.144-2.214c0,0,4.075-11.292,9.777-16.656,0,0,7.1-7.7,13.035-7.463,0,0,1.106.757-.989,2.216a4.659,4.659,0,0,0-1.514,5.072s1.747,3.206-1.512,3.149a11.682,11.682,0,0,0-6.634,3.323s-3.43,5.732-2.267,11.887c0,0,.255,6.8,3.388,9.424,0,0,6.776,7.885,5.392,13.433,0,0,0,4.016-.874,5.257,0,0-1.12,4.789,2.213,4.47.346-.078.694-.151,1.042-.225.079-.026.16-.053.242-.083l.433-.064a101.7,101.7,0,0,1,12.5-1.772c.691-.085,1.176-.136,1.351-.136,0,0,4.226-1.313,3.206-5.329a9.77,9.77,0,0,0-4.154-3.8s-9.226-6.4-8.751-14.529a15.929,15.929,0,0,1,3.26-9.808,45.481,45.481,0,0,1,7.37-8.467s1.319-1.286-.428-2.857c0,0-4.416-3.088-5.133-6.251,0,0-2-3.679.856-9.144a29.692,29.692,0,0,1,5.734-6.251s3.841-3.773,4.209-5.845c0,0,1.182-3.772,2.954-.592a24.587,24.587,0,0,0,6.054,8.287s7.384,6.066,4.726,13.465a13.881,13.881,0,0,1-6.093,6.7s-.744,3.136,6.082,8.347c0,.9,7.933,7.022,3.437,18.681,0,0-2.512,5.564-11.635,11.394a5.066,5.066,0,0,0,2.437,6.064A101.985,101.985,0,0,1,289.685,898.565Z" fill="none" clip-rule="evenodd"></path>
    </clipPath>
    <clipPath id="clip-path-2">
      <path id="Path_70" data-name="Path 70" d="M205.881,1134.64s4.2-.567.564-4.046c0,0-27.94-19.754-45.24-23.778,0,0,8.032,14.7,9.732,20.584,0,0-16.991,2.786-22.243,7.43,8.966,1.242,25.133,8.933,33.055,14.7Z" fill="#ffca18" clip-rule="evenodd"></path>
    </clipPath>
    <clipPath id="clip-path-3">
      <path id="Path_72" data-name="Path 72" d="M322.579,1134.64s-4.2-.567-.564-4.046c0,0,27.94-19.754,45.24-23.778,0,0-8.032,14.7-9.732,20.584,0,0,16.991,2.786,22.243,7.43-8.965,1.242-25.133,8.933-33.055,14.7Z" fill="#ffca18" clip-rule="evenodd"></path>
    </clipPath>
    <clipPath id="clip-path-4">
      <path id="Path_76" data-name="Path 76" d="M188.272,1126.5s-2.189,1.686,5.919,6.716c0,0,23.621,17.219,45.5,20.572s45.421,6.7,84.313-13.586c7.851-4.517,12.725-6.947,15.87-12.407a92.335,92.335,0,0,0,18.665,24.565s2.739.837-10.39,9.04c0,0-30.947,25.768-87.592,25.992,0,0-50.4-1.117-87.643-31.06-4.922-3.63-4.5-4.105-3.715-4.736a54.977,54.977,0,0,0,6.479-5.814c3.257-4.592,7.26-9.7,10.039-14.457,1.029-1.761,1.805-3.411,2.551-4.825" fill="#ffca18" clip-rule="evenodd"></path>
    </clipPath>
  </defs>
  <g id="Group_345" data-name="Group 345" transform="translate(-549.226 3005.077)">
    <g id="Group_338" data-name="Group 338" transform="translate(445.291 -3826.83)">
      <g id="Group_12" data-name="Group 12">
        <g id="Group_11" data-name="Group 11" clip-path="url(#clip-path)">
          <path id="Path_64" data-name="Path 64" d="M415.014,763.97,47.73,829.8l65.543,365.683,367.284-65.829Zm-89.1,248.739c-3.907.239-5.535,0-8.285,1.981a5.912,5.912,0,0,0-2.207,7.169,15.052,15.052,0,0,0,4.186,6.091c5.132,5.284,4.282,7.371-1.288,12.559-1.779,1.657-3.382,3.388-5.077,5.073-3.654,3.636-7.3,9.309-12.3,6.9-2.006-.97-4.13-3.175-5.718-4.554-3.786-3.288-10.82-3.77-12.564,3.562-.753,3.171.348,6.208-1.18,9.077a7.03,7.03,0,0,1-2.589,2.6,17.774,17.774,0,0,1-3.637,1.352c-2.988.213-11.452.036-15.33.017-4.1-.021-7.958-2.041-8.493-6.754-.416-3.649.022-5.646-1.576-8.714a6.076,6.076,0,0,0-6.659-3.358c-3.328.511-4.778,1.926-6.568,3.717-1.34,1.342-3.825,3.828-6.486,3.761-4.053-.1-8.635-6.011-11.456-8.931-1.725-1.785-3.294-3.2-5.078-5.189-5.537-6.165-1.263-9,2.107-13.075,1.906-2.3,2.559-3.662,2.459-6.78q-.89-1.945-1.617-3.98c-.4-.271-.828-.635-1.212-.861-5.2-3.068-10.222-.192-13.935-3.817-2.409-2.349-2.5-4.728-2.5-7.742q0-5.076,0-10.153c0-3.623-.054-5.8,1.979-8.268,4.239-5.144,9.687-.1,15.558-4.963,2.012-1.666,2.4-4.789,1.574-7.807-1.239-4.549-8.765-7.369-6.287-13.245.847-2.01,3.292-4.36,4.549-5.733,2.221-2.427,7.958-8.238,10.46-9.937,6.038-4.1,8.844,2.549,12.976,4.821,2.371,1.3,5.788,1.628,8.184.155,6.117-3.762.5-14.76,8.464-17.032,2.9-.83,11.374-.521,14.68-.519,2.824,0,5.961-.244,8.543,1.726,4.973,3.793.19,11.063,5.306,15.235a7.642,7.642,0,0,0,7.93.8c5.181-2.18,8.038-8.79,13.233-5.668,2.153,1.294,8.495,7.784,10.529,9.88,3.965,4.085,8.652,7.471,4.3,12.486-1.569,1.807-3.5,3.248-4.748,5.53-1.416,2.591-2.165,5.187-.346,7.791a9.6,9.6,0,0,0,6.54,3.748c3.106.293,6.6-.3,8.84,1.41,2.007,1.529,2.785,4.333,2.819,7.363.038,3.379.012,6.772.011,10.153C334,1007.582,334.332,1012.192,325.917,1012.709Z" fill="#ffca18"></path>
        </g>
      </g>
      <path id="Path_66" data-name="Path 66" d="M265.5,895.7a101.191,101.191,0,1,0,101.31,101.191A101.251,101.251,0,0,0,265.5,895.7Zm60.414,117.006c-3.907.239-5.535,0-8.285,1.981a5.912,5.912,0,0,0-2.207,7.169,15.052,15.052,0,0,0,4.186,6.091c5.132,5.284,4.282,7.371-1.288,12.559-1.779,1.657-3.382,3.388-5.077,5.073-3.654,3.636-7.3,9.309-12.3,6.9-2.006-.97-4.13-3.175-5.718-4.554-3.786-3.288-10.82-3.77-12.564,3.562-.753,3.171.348,6.208-1.18,9.077a7.03,7.03,0,0,1-2.589,2.6,17.774,17.774,0,0,1-3.637,1.352c-2.988.213-11.452.036-15.33.017-4.1-.021-7.958-2.041-8.493-6.754-.416-3.649.022-5.646-1.576-8.714a6.076,6.076,0,0,0-6.659-3.358c-3.328.511-4.778,1.926-6.568,3.717-1.34,1.342-3.825,3.828-6.486,3.761-4.053-.1-8.635-6.011-11.456-8.931-1.725-1.785-3.294-3.2-5.078-5.189-5.537-6.165-1.263-9,2.107-13.075,1.906-2.3,2.559-3.662,2.459-6.78q-.89-1.945-1.617-3.98c-.4-.271-.828-.635-1.212-.861-5.2-3.068-10.222-.192-13.935-3.817-2.409-2.349-2.5-4.728-2.5-7.742q0-5.076,0-10.153c0-3.623-.054-5.8,1.979-8.268,4.239-5.144,9.687-.1,15.558-4.963,2.012-1.666,2.4-4.789,1.574-7.807-1.239-4.549-8.765-7.369-6.287-13.245.847-2.01,3.292-4.36,4.549-5.733,2.221-2.427,7.958-8.238,10.46-9.937,6.038-4.1,8.844,2.549,12.976,4.821,2.371,1.3,5.788,1.628,8.184.155,6.117-3.762.5-14.76,8.464-17.032,2.9-.83,11.374-.521,14.68-.519,2.824,0,5.961-.244,8.543,1.726,4.973,3.793.19,11.063,5.306,15.235a7.642,7.642,0,0,0,7.93.8c5.181-2.18,8.038-8.79,13.233-5.668,2.153,1.294,8.495,7.784,10.529,9.88,3.965,4.085,8.652,7.471,4.3,12.486-1.569,1.807-3.5,3.248-4.748,5.53-1.416,2.591-2.165,5.187-.346,7.791a9.6,9.6,0,0,0,6.54,3.748c3.106.293,6.6-.3,8.84,1.41,2.007,1.529,2.785,4.333,2.819,7.363.038,3.379.012,6.772.011,10.153C334,1007.582,334.332,1012.192,325.917,1012.709Z" fill="#ffca18"></path>
      <path id="Path_67" data-name="Path 67" d="M332.73,953.5a3.681,3.681,0,0,0-1.776,1.827,2.09,2.09,0,0,0,.113,1.825,2.054,2.054,0,0,0,1.477,1.018,3.559,3.559,0,0,0,2.381-.6,3.991,3.991,0,0,0,1.888-1.872,2.089,2.089,0,0,0-.123-1.858,2.015,2.015,0,0,0-1.487-1.013,3.865,3.865,0,0,0-2.473.676m-1.414,6.108.941-.542a2.657,2.657,0,0,1-2.288-1.443,3.332,3.332,0,0,1-.447-1.91,3.728,3.728,0,0,1,.7-1.937,5.437,5.437,0,0,1,1.776-1.566,6.08,6.08,0,0,1,2.221-.788,3.355,3.355,0,0,1,2.019.316,3.4,3.4,0,0,1,1.429,1.376,2.85,2.85,0,0,1,.4,1.359,2.888,2.888,0,0,1-.249,1.276l3.678-2.119.723,1.259-10.227,5.893Zm-8.372-12.062,6.723-5.294.8,1.025-.955.752a3.07,3.07,0,0,1,2.775,1.276,3.573,3.573,0,0,1,.659,1.29,2.24,2.24,0,0,1,.027,1.214,2.789,2.789,0,0,1-.561,1.016,8.433,8.433,0,0,1-1.058.935l-4.129,3.25-.9-1.141,4.085-3.217a3.894,3.894,0,0,0,.937-.951,1.413,1.413,0,0,0,.181-.906,1.926,1.926,0,0,0-.417-.955,2.34,2.34,0,0,0-1.446-.891,2.891,2.891,0,0,0-2.166.851l-3.668,2.888Zm.575-5.665a10.623,10.623,0,0,1-2.031-1.345,5.552,5.552,0,0,0-1.084-.721,1.278,1.278,0,0,0-.732-.091,1.264,1.264,0,0,0-1.027,1.308,1.916,1.916,0,0,0,.608,1.2,3,3,0,0,0,1.293.828,2.24,2.24,0,0,0,1.381.008,3.458,3.458,0,0,0,1.2-.828Zm-2.246,2.3a5.429,5.429,0,0,1-1.774-.457,4.463,4.463,0,0,1-1.309-.965,3.128,3.128,0,0,1-1-2.047,2.264,2.264,0,0,1,.745-1.76,2.348,2.348,0,0,1,1.027-.585,2.379,2.379,0,0,1,1.117-.03,3.549,3.549,0,0,1,1.064.429,10.688,10.688,0,0,1,1.047.786,13.3,13.3,0,0,0,2.145,1.531c.147-.132.24-.217.278-.253a1.6,1.6,0,0,0,.616-1.159,2.442,2.442,0,0,0-.787-1.537,2.574,2.574,0,0,0-1.3-.849,2.181,2.181,0,0,0-1.419.356l-.835-1.165a3.518,3.518,0,0,1,1.505-.555,2.806,2.806,0,0,1,1.511.335,5.751,5.751,0,0,1,1.56,1.2,5.182,5.182,0,0,1,1.046,1.474,2.042,2.042,0,0,1-.177,2.191,8.336,8.336,0,0,1-.914.972l-1.392,1.329a20.993,20.993,0,0,0-1.784,1.83,3.292,3.292,0,0,0-.5.971l-1.047-1.1A3.225,3.225,0,0,1,321.273,944.19Zm-15.6-11.617,6.836-9.633,1.182.841-2.46,3.467a3.2,3.2,0,0,1,2.76.516,3.421,3.421,0,0,1,1.122,1.258,2.2,2.2,0,0,1,.214,1.422,4.81,4.81,0,0,1-.865,1.737l-3.137,4.419-1.181-.842,3.133-4.415a2.255,2.255,0,0,0,.535-1.56,1.739,1.739,0,0,0-.792-1.172,2.323,2.323,0,0,0-1.174-.427,1.887,1.887,0,0,0-1.18.272,4.194,4.194,0,0,0-1.107,1.146l-2.705,3.812Zm-.639-1.78L304.57,932a5.425,5.425,0,0,1-1.01-.432,2.463,2.463,0,0,1-.934-.828,1.409,1.409,0,0,1-.2-.874,5.257,5.257,0,0,1,.7-1.576l2.456-4.279-.929-.536.559-.972.929.535,1.053-1.837,1.691-.032-1.488,2.593,1.257.724-.559.973-1.257-.724-2.5,4.35a2.484,2.484,0,0,0-.331.733.6.6,0,0,0,.073.369.965.965,0,0,0,.376.337A4.5,4.5,0,0,0,305.036,930.793Zm-6.657-2.141,5.378-10.52,1.291.661-5.378,10.521Zm-1.759-5.514a10.616,10.616,0,0,1-2.406-.365,5.471,5.471,0,0,0-1.286-.2,1.262,1.262,0,0,0-.7.226,1.265,1.265,0,0,0-.384,1.619,1.9,1.9,0,0,0,1.055.831,2.981,2.981,0,0,0,1.52.207,2.243,2.243,0,0,0,1.257-.573,3.472,3.472,0,0,0,.746-1.259Zm-1.071,3.037a5.434,5.434,0,0,1-1.8.333,4.446,4.446,0,0,1-1.593-.326,3.109,3.109,0,0,1-1.763-1.436,2.261,2.261,0,0,1-.062-1.911,2.349,2.349,0,0,1,.685-.963,2.374,2.374,0,0,1,1-.5,3.561,3.561,0,0,1,1.144-.06,10.935,10.935,0,0,1,1.281.273,13.2,13.2,0,0,0,2.589.487c.077-.182.126-.3.146-.348a1.6,1.6,0,0,0,.072-1.311,2.428,2.428,0,0,0-1.359-1.062,2.549,2.549,0,0,0-1.539-.221,2.181,2.181,0,0,0-1.138.919l-1.245-.705a3.506,3.506,0,0,1,1.132-1.138,2.815,2.815,0,0,1,1.512-.331,5.756,5.756,0,0,1,1.919.433,5.145,5.145,0,0,1,1.566.9,2.364,2.364,0,0,1,.7.974,2.318,2.318,0,0,1,.059,1.089,8.289,8.289,0,0,1-.421,1.267l-.706,1.792a20.673,20.673,0,0,0-.85,2.412,3.272,3.272,0,0,0-.05,1.092l-1.411-.556A3.251,3.251,0,0,1,295.549,926.175Zm-11.964-8.193,4.58,1.3a2.906,2.906,0,0,0-.084-1.708,2.218,2.218,0,0,0-1.493-1.3,2.3,2.3,0,0,0-1.794.185A2.664,2.664,0,0,0,283.585,917.982Zm3.929,3.538,1.388.6a3.628,3.628,0,0,1-1.811,1.6,4.427,4.427,0,0,1-5.083-1.9,4.52,4.52,0,0,1-.172-3.416,4.719,4.719,0,0,1,1.978-2.915,3.74,3.74,0,0,1,3.09-.359,3.639,3.639,0,0,1,2.368,1.887,4.654,4.654,0,0,1,.148,3.457c-.024.081-.061.2-.113.368l-6.126-1.743a3.29,3.29,0,0,0,.178,2.293,2.366,2.366,0,0,0,1.51,1.208,2.194,2.194,0,0,0,1.42-.034A2.782,2.782,0,0,0,287.514,921.52Zm-17.931-.462,1.487-11.727,1.553.2-.612,4.831,6.047.771.613-4.832,1.553.2-1.488,11.727-1.553-.2.7-5.519-6.047-.77-.7,5.519Zm-8.533.186-.3-11.816,1.449-.037.3,11.816Zm-4.187-3.932a10.578,10.578,0,0,1-2.286.84,5.486,5.486,0,0,0-1.222.447,1.274,1.274,0,0,0-.508.536,1.235,1.235,0,0,0-.114.708,1.218,1.218,0,0,0,.556.9,1.908,1.908,0,0,0,1.324.221,3.015,3.015,0,0,0,1.433-.552,2.256,2.256,0,0,0,.825-1.109,3.476,3.476,0,0,0,.05-1.463Zm.519,3.179a5.383,5.383,0,0,1-1.42,1.159,4.419,4.419,0,0,1-1.552.484,3.106,3.106,0,0,1-2.236-.409,2.254,2.254,0,0,1-.972-1.645,2.358,2.358,0,0,1,.138-1.175,2.385,2.385,0,0,1,.639-.919,3.564,3.564,0,0,1,.975-.6,10.863,10.863,0,0,1,1.253-.379,13.191,13.191,0,0,0,2.5-.821c-.019-.2-.032-.323-.038-.375a1.6,1.6,0,0,0-.566-1.184,2.421,2.421,0,0,0-1.7-.277,2.563,2.563,0,0,0-1.456.548,2.191,2.191,0,0,0-.556,1.355l-1.431-.017a3.522,3.522,0,0,1,.447-1.544,2.823,2.823,0,0,1,1.166-1.02,5.754,5.754,0,0,1,1.89-.545,5.141,5.141,0,0,1,1.8.031,2.036,2.036,0,0,1,1.656,1.442,8.344,8.344,0,0,1,.239,1.315l.242,1.911a20.74,20.74,0,0,0,.412,2.524,3.28,3.28,0,0,0,.481.981l-1.5.192A3.226,3.226,0,0,1,257.382,920.491Zm-14.291,4.026-2.336-8.241,1.251-.357.332,1.17A3.078,3.078,0,0,1,244.569,915a3.569,3.569,0,0,1,1.442-.122,2.24,2.24,0,0,1,1.132.436,2.777,2.777,0,0,1,.724.907,8.468,8.468,0,0,1,.462,1.336l1.434,5.06-1.4.4-1.419-5.008a3.946,3.946,0,0,0-.522-1.23,1.414,1.414,0,0,0-.767-.511,1.908,1.908,0,0,0-1.041.025,2.33,2.33,0,0,0-1.372,1,2.9,2.9,0,0,0-.036,2.33l1.274,4.5Zm-9.283-1.14a3.628,3.628,0,0,0,1.565,2.023,2.4,2.4,0,0,0,3.356-1.329,3.723,3.723,0,0,0-.248-2.59,3.513,3.513,0,0,0-1.551-1.967,2.4,2.4,0,0,0-3.353,1.319A3.619,3.619,0,0,0,233.808,923.377Zm-1.38.543a4.4,4.4,0,0,1-.059-3.757,3.98,3.98,0,0,1,2.153-1.871,3.84,3.84,0,0,1,3.1.016,4.384,4.384,0,0,1,2.207,2.557,5.647,5.647,0,0,1,.49,2.6,3.507,3.507,0,0,1-.8,1.9,4.185,4.185,0,0,1-1.727,1.244,3.842,3.842,0,0,1-3.121,0A4.586,4.586,0,0,1,232.428,923.92Zm-1.2,5.446-3.9-7.625,1.29-.663,3.9,7.626Zm-4.626-9.051-.751-1.469,1.29-.662.751,1.469Zm2.7,8.558.81,1.013a5.4,5.4,0,0,1-.881.656,2.466,2.466,0,0,1-1.184.393,1.4,1.4,0,0,1-.856-.265,5.241,5.241,0,0,1-1.006-1.4l-2.456-4.28-.928.535-.559-.973.929-.535-1.054-1.837.823-1.481,1.488,2.594,1.257-.724.558.973-1.257.724,2.5,4.35a2.463,2.463,0,0,0,.465.656.594.594,0,0,0,.355.122.959.959,0,0,0,.48-.156A4.467,4.467,0,0,0,229.3,928.873Zm-7.728,1.11a10.717,10.717,0,0,1-1.619,1.821,5.491,5.491,0,0,0-.867.972,1.272,1.272,0,0,0-.195.713,1.238,1.238,0,0,0,.232.679,1.22,1.22,0,0,0,.914.527,1.908,1.908,0,0,0,1.27-.432,3.006,3.006,0,0,0,1-1.164,2.26,2.26,0,0,0,.206-1.369,3.5,3.5,0,0,0-.646-1.312Zm1.955,2.556a5.447,5.447,0,0,1-.705,1.694,4.453,4.453,0,0,1-1.14,1.161,3.113,3.113,0,0,1-2.164.7,2.256,2.256,0,0,1-1.633-.99,2.354,2.354,0,0,1-.431-1.1,2.4,2.4,0,0,1,.13-1.113,3.588,3.588,0,0,1,.575-.994,11.14,11.14,0,0,1,.927-.926,13.248,13.248,0,0,0,1.82-1.908c-.11-.164-.181-.269-.212-.312a1.59,1.59,0,0,0-1.056-.777,2.432,2.432,0,0,0-1.631.561,2.57,2.57,0,0,0-1.024,1.172,2.19,2.19,0,0,0,.148,1.458l-1.269.661a3.5,3.5,0,0,1-.334-1.571,2.824,2.824,0,0,1,.548-1.451,5.743,5.743,0,0,1,1.409-1.375,5.148,5.148,0,0,1,1.6-.827,2.35,2.35,0,0,1,1.2-.055,2.312,2.312,0,0,1,.942.544,8.484,8.484,0,0,1,.83,1.046l1.114,1.57a20.874,20.874,0,0,0,1.552,2.03,3.284,3.284,0,0,0,.888.638l-1.236.879A3.173,3.173,0,0,1,223.529,932.539Zm-8.048,3.415,1.2-.78a3.671,3.671,0,0,1,.6,2.514,3.492,3.492,0,0,1-1.242,2.174,3.655,3.655,0,0,1-2.877.979,4.627,4.627,0,0,1-2.951-1.785,5.935,5.935,0,0,1-1.237-2.133,3.181,3.181,0,0,1,.038-2.09,4.132,4.132,0,0,1,1.2-1.729,3.535,3.535,0,0,1,2.179-.96,3.222,3.222,0,0,1,2.166.771l-.918,1.08a2.335,2.335,0,0,0-1.389-.513,1.849,1.849,0,0,0-1.218.482,2.264,2.264,0,0,0-.834,1.762,3.728,3.728,0,0,0,1.107,2.327,3.837,3.837,0,0,0,2.133,1.46,2.156,2.156,0,0,0,1.813-.539,2.035,2.035,0,0,0,.736-1.33A2.586,2.586,0,0,0,215.481,935.954Zm-4.712,8.57-.961-.834a3.126,3.126,0,0,1-.672,3,3.47,3.47,0,0,1-1.141.877,2.351,2.351,0,0,1-1.187.26,2.735,2.735,0,0,1-1.1-.368,7.538,7.538,0,0,1-1.079-.82l-4-3.471.949-1.1,3.577,3.1a8.367,8.367,0,0,0,1.212.935,1.488,1.488,0,0,0,1.055.149,1.779,1.779,0,0,0,.961-.612,2.37,2.37,0,0,0,.547-1.141,1.878,1.878,0,0,0-.159-1.208,4.582,4.582,0,0,0-1.1-1.272l-3.456-3,.95-1.1,6.463,5.61Zm-12.033,8.37a3.687,3.687,0,0,0,2.4.855,2.094,2.094,0,0,0,1.609-.866,2.071,2.071,0,0,0,.306-1.771,3.573,3.573,0,0,0-1.542-1.916,3.987,3.987,0,0,0-2.486-.937,2.083,2.083,0,0,0-1.634.889,2.024,2.024,0,0,0-.3,1.776A3.883,3.883,0,0,0,198.736,952.894Zm6.13-1.265-.884-.629a2.668,2.668,0,0,1-.353,2.685,3.34,3.34,0,0,1-1.545,1.206,3.713,3.713,0,0,1-2.048.175,5.439,5.439,0,0,1-2.161-.963,6.079,6.079,0,0,1-1.642-1.694,3.362,3.362,0,0,1-.556-1.969,3.4,3.4,0,0,1,.651-1.876,2.837,2.837,0,0,1,1.062-.934,2.888,2.888,0,0,1,1.262-.306l-3.457-2.463.84-1.185,9.614,6.85Zm-8.33,14-10.5-5.389,3.883-7.6,1.232.632-3.17,6.2,3.227,1.655,2.966-5.8,1.232.632-2.967,5.8,3.579,1.837,3.3-6.451,1.232.633Zm-4.518,13.221-11.348-3.229.4-1.4,4.084,1.162a3.217,3.217,0,0,1-.439-2.78,3.447,3.447,0,0,1,.807-1.48,2.193,2.193,0,0,1,1.266-.678,4.767,4.767,0,0,1,1.923.235l5.206,1.482-.4,1.4-5.2-1.48a2.246,2.246,0,0,0-1.647.018,1.739,1.739,0,0,0-.837,1.14,2.34,2.34,0,0,0-.009,1.251,1.9,1.9,0,0,0,.652,1.023,4.184,4.184,0,0,0,1.448.662l4.491,1.277ZM190.4,980.02l1.295.03a5.375,5.375,0,0,1-.064,1.1,2.48,2.48,0,0,1-.461,1.162,1.4,1.4,0,0,1-.753.485,5.2,5.2,0,0,1-1.718-.128l-4.85-.868-.188,1.057-1.1-.2.189-1.057-2.082-.373-.6-1.583,2.939.526.254-1.43,1.1.2-.255,1.43,4.931.883a2.512,2.512,0,0,0,.8.065.6.6,0,0,0,.322-.2.986.986,0,0,0,.19-.469A4.443,4.443,0,0,0,190.4,980.02Zm-4.1,6.447a10.652,10.652,0,0,1,.24,2.426,5.5,5.5,0,0,0,.126,1.3,1.274,1.274,0,0,0,.391.627,1.262,1.262,0,0,0,1.662-.026,1.913,1.913,0,0,0,.543-1.23,3.014,3.014,0,0,0-.174-1.527,2.251,2.251,0,0,0-.865-1.079,3.456,3.456,0,0,0-1.4-.413Zm3.2.291a5.421,5.421,0,0,1,.765,1.667,4.454,4.454,0,0,1,.079,1.627,3.122,3.122,0,0,1-.954,2.067,2.251,2.251,0,0,1-1.834.532,2.344,2.344,0,0,1-1.1-.428,2.376,2.376,0,0,1-.728-.851,3.548,3.548,0,0,1-.339-1.1,11.05,11.05,0,0,1-.053-1.31,13.2,13.2,0,0,0-.167-2.634l-.371-.056a1.593,1.593,0,0,0-1.287.252,2.445,2.445,0,0,0-.693,1.582,2.58,2.58,0,0,0,.165,1.55,2.187,2.187,0,0,0,1.171.877l-.375,1.384a3.5,3.5,0,0,1-1.379-.819,2.824,2.824,0,0,1-.694-1.387,5.775,5.775,0,0,1-.054-1.97,5.152,5.152,0,0,1,.481-1.742,2.036,2.036,0,0,1,1.808-1.246,8.483,8.483,0,0,1,1.329.1l1.908.243a20.683,20.683,0,0,0,2.542.232,3.257,3.257,0,0,0,1.068-.221l-.191,1.507A3.212,3.212,0,0,1,189.505,986.758Zm.506,14.881-8.548.217-.033-1.3,1.213-.032a3.08,3.08,0,0,1-1.463-2.685,3.611,3.611,0,0,1,.241-1.429,2.245,2.245,0,0,1,.7-.989,2.772,2.772,0,0,1,1.056-.478,8.5,8.5,0,0,1,1.407-.116l5.248-.132.037,1.452-5.194.131a3.883,3.883,0,0,0-1.319.2,1.416,1.416,0,0,0-.685.616,1.928,1.928,0,0,0-.234,1.017,2.334,2.334,0,0,0,.627,1.58,2.888,2.888,0,0,0,2.244.615l4.663-.118Zm1.047,9.122-8.483,1.08-.164-1.293,1.205-.154a3.08,3.08,0,0,1-1.727-2.523,3.594,3.594,0,0,1,.1-1.446,2.232,2.232,0,0,1,.6-1.056,2.8,2.8,0,0,1,1-.582,8.446,8.446,0,0,1,1.387-.257l5.21-.664.182,1.441-5.153.657a3.884,3.884,0,0,0-1.293.334,1.412,1.412,0,0,0-.619.683,1.932,1.932,0,0,0-.131,1.035,2.328,2.328,0,0,0,.784,1.508,2.882,2.882,0,0,0,2.293.385l4.628-.59Zm-3.317,4.794a10.654,10.654,0,0,1,1.171,2.138,5.547,5.547,0,0,0,.624,1.144,1.265,1.265,0,0,0,.605.422,1.238,1.238,0,0,0,.716.009,1.221,1.221,0,0,0,.8-.686,1.914,1.914,0,0,0,.019-1.344,3.017,3.017,0,0,0-.759-1.338,2.236,2.236,0,0,0-1.218-.651,3.452,3.452,0,0,0-1.451.169Zm3.059-.991a5.43,5.43,0,0,1,1.357,1.233,4.459,4.459,0,0,1,.709,1.466,3.124,3.124,0,0,1-.068,2.276,2.257,2.257,0,0,1-1.478,1.21,2.361,2.361,0,0,1-2.182-.458,3.563,3.563,0,0,1-.743-.875,11.048,11.048,0,0,1-.56-1.185,13.28,13.28,0,0,0-1.186-2.357l-.364.095a1.591,1.591,0,0,0-1.083.737,2.44,2.44,0,0,0-.019,1.728,2.568,2.568,0,0,0,.759,1.36,2.185,2.185,0,0,0,1.42.348l.2,1.419a3.51,3.51,0,0,1-1.59-.21,2.825,2.825,0,0,1-1.18-1,5.751,5.751,0,0,1-.821-1.791,5.165,5.165,0,0,1-.24-1.791,2.37,2.37,0,0,1,.348-1.149,2.318,2.318,0,0,1,.827-.708,8.54,8.54,0,0,1,1.261-.433l1.85-.526a20.77,20.77,0,0,0,2.429-.786,3.288,3.288,0,0,0,.9-.624l.414,1.461A3.236,3.236,0,0,1,190.8,1014.564Zm1.317,14.455a3.69,3.69,0,0,0,2.031-1.521,2.217,2.217,0,0,0-1.224-3.128,3.569,3.569,0,0,0-2.486.255,3.5,3.5,0,0,0-1.941,1.518,2.16,2.16,0,0,0-.123,1.855,2.1,2.1,0,0,0,1.331,1.246A3.465,3.465,0,0,0,192.117,1029.019Zm5.207-.78-.329-1.378a1.341,1.341,0,0,0,.7-.807,2.434,2.434,0,0,0-.168-1.522,2.6,2.6,0,0,0-.943-1.3,1.971,1.971,0,0,0-1.317-.279,9.314,9.314,0,0,0-1.762.584,2.986,2.986,0,0,1,1.911,1.8,3.239,3.239,0,0,1-.182,3.012,4.873,4.873,0,0,1-2.479,2.019,5.673,5.673,0,0,1-2.261.418,3.52,3.52,0,0,1-1.955-.609,3.462,3.462,0,0,1-1.249-1.636,3.059,3.059,0,0,1,.235-2.778l-.981.388-.49-1.245,6.87-2.714a6.962,6.962,0,0,1,2.779-.66,2.967,2.967,0,0,1,1.7.714,4.482,4.482,0,0,1,1.244,1.842,4.087,4.087,0,0,1,.266,2.551A2.31,2.31,0,0,1,197.324,1028.239Zm-2.84,5.481a10.661,10.661,0,0,1,1.655,1.79,5.405,5.405,0,0,0,.882.957,1.277,1.277,0,0,0,.689.264,1.237,1.237,0,0,0,.7-.167,1.221,1.221,0,0,0,.611-.86,1.908,1.908,0,0,0-.307-1.308,3,3,0,0,0-1.06-1.114,2.256,2.256,0,0,0-1.339-.336,3.477,3.477,0,0,0-1.366.518Zm2.728-1.7a5.421,5.421,0,0,1,1.615.866,4.45,4.45,0,0,1,1.044,1.249,3.127,3.127,0,0,1,.484,2.226,2.259,2.259,0,0,1-1.141,1.533,2.354,2.354,0,0,1-1.134.324,2.387,2.387,0,0,1-1.094-.237,3.588,3.588,0,0,1-.931-.669,11.268,11.268,0,0,1-.832-1.013,13.268,13.268,0,0,0-1.72-2c-.174.094-.285.155-.33.181a1.591,1.591,0,0,0-.873.978,2.444,2.444,0,0,0,.4,1.681,2.563,2.563,0,0,0,1.066,1.134,2.169,2.169,0,0,0,1.463-.007l.534,1.33a3.514,3.514,0,0,1-1.593.181,2.809,2.809,0,0,1-1.389-.685,5.8,5.8,0,0,1-1.23-1.538,5.189,5.189,0,0,1-.667-1.679,2.381,2.381,0,0,1,.06-1.2,2.328,2.328,0,0,1,.631-.889,8.481,8.481,0,0,1,1.119-.726l1.666-.96a20.975,20.975,0,0,0,2.167-1.353,3.292,3.292,0,0,0,.719-.824l.755,1.317A3.21,3.21,0,0,1,197.212,1032.015Zm5.979,13.577-.968-1.033a3.046,3.046,0,0,0,1.219-1.49,1.6,1.6,0,0,0-.314-1.308,1.854,1.854,0,0,0-.805-.669,1.4,1.4,0,0,0-.939-.054,4.889,4.889,0,0,0-1.295.728l-6.627,4.721-.907-1.278,6.551-4.667a5.83,5.83,0,0,1,2.075-1.04,2.546,2.546,0,0,1,1.666.207,3.713,3.713,0,0,1,1.4,1.237,3.074,3.074,0,0,1,.65,2.457A3.7,3.7,0,0,1,203.191,1045.592Zm7.8,3.772-6.188,5.912-1-1.052,6.189-5.912Zm-7.346,7.017-1.192,1.139-1-1.051,1.192-1.139Zm11.278-3.161-5.9,6.2-.943-.9.9-.95a3.474,3.474,0,0,1-1.495.232,1.6,1.6,0,0,1-.875-.432,2.879,2.879,0,0,1-.763-1.364l1.3-.613a2.14,2.14,0,0,0,.559.944,1.366,1.366,0,0,0,.811.38,1.543,1.543,0,0,0,.933-.2,5.538,5.538,0,0,0,1.341-1.057l3.083-3.239Zm7.1,5.771-7.29,9.294-1.14-.9,2.623-3.346a3.193,3.193,0,0,1-2.733-.647,3.423,3.423,0,0,1-1.06-1.31,2.2,2.2,0,0,1-.146-1.431,4.778,4.778,0,0,1,.948-1.693l3.344-4.264,1.14.9-3.341,4.259a2.261,2.261,0,0,0-.609,1.533,1.739,1.739,0,0,0,.735,1.209,2.325,2.325,0,0,0,1.151.483,1.885,1.885,0,0,0,1.192-.216,4.162,4.162,0,0,0,1.161-1.091l2.885-3.678Zm7.823,9.123-1.337-.617a3.288,3.288,0,0,0,.307-1.512,2.7,2.7,0,0,0-.568-1.394,4.535,4.535,0,0,0-1.393-1.21,4.326,4.326,0,0,0-1.5-.555,2.185,2.185,0,0,0-1.247.129,1.714,1.714,0,0,0-.794.71,1.548,1.548,0,0,0-.2,1,2.425,2.425,0,0,0,.575,1.134,21.787,21.787,0,0,0,1.535,1.548,10.7,10.7,0,0,1,1.607,1.777,3.2,3.2,0,0,1,.538,1.583,2.691,2.691,0,0,1-.372,1.483,3,3,0,0,1-1.274,1.2,3.121,3.121,0,0,1-1.872.287,5.577,5.577,0,0,1-2.077-.731,5.876,5.876,0,0,1-1.793-1.521,3.329,3.329,0,0,1-.716-1.85,3.585,3.585,0,0,1,.425-1.905l1.357.649a2.412,2.412,0,0,0-.134,1.872,3.18,3.18,0,0,0,1.5,1.524,3.293,3.293,0,0,0,2.049.58,1.555,1.555,0,0,0,1.185-.764,1.346,1.346,0,0,0,.124-1.138,6.219,6.219,0,0,0-1.621-1.9,15.691,15.691,0,0,1-1.888-1.958,3.567,3.567,0,0,1-.719-1.8,2.913,2.913,0,0,1,.41-1.7,3.187,3.187,0,0,1,1.349-1.27,3.546,3.546,0,0,1,1.986-.352,5.392,5.392,0,0,1,2.2.734,6.789,6.789,0,0,1,2.088,1.742,3.741,3.741,0,0,1,.77,2.066A3.981,3.981,0,0,1,229.846,1068.114Z" fill="#021a60"></path>
      <path id="Path_68" data-name="Path 68" d="M299.492,1066.022l-.759-1.051a5.369,5.369,0,0,1,.911-.613,2.452,2.452,0,0,1,1.2-.335,1.39,1.39,0,0,1,.841.306,5.209,5.209,0,0,1,.938,1.448l2.245,4.393.954-.489.51,1-.952.49.964,1.885-.894,1.439-1.361-2.662-1.29.662-.511-1,1.291-.663-2.284-4.467a2.541,2.541,0,0,0-.433-.677.606.606,0,0,0-.349-.139.982.982,0,0,0-.487.132,4.553,4.553,0,0,0-.536.341m11.092-5.067-1.081.969a2.006,2.006,0,0,0-1.28-.75,2.351,2.351,0,0,0-1.547.447,2.282,2.282,0,0,0-1.031,1.146,1.218,1.218,0,0,0,.108,1.066.873.873,0,0,0,.781.416,6.452,6.452,0,0,0,1.513-.388,13.53,13.53,0,0,1,2.231-.608,2.113,2.113,0,0,1,2.107.973,2.2,2.2,0,0,1,.35,1.033,2.351,2.351,0,0,1-.163,1.066,3.036,3.036,0,0,1-.547.852,4.356,4.356,0,0,1-.959.821,4.865,4.865,0,0,1-1.641.708,2.392,2.392,0,0,1-1.369-.055,3.119,3.119,0,0,1-1.136-.852l1.086-.933a1.572,1.572,0,0,0,1.033.578,2.006,2.006,0,0,0,1.3-.39,2.363,2.363,0,0,0,1.018-1.046.965.965,0,0,0-.059-.88.8.8,0,0,0-.422-.334,1.286,1.286,0,0,0-.674-.025c-.152.032-.575.157-1.275.379a17.916,17.916,0,0,1-2.165.592,2.176,2.176,0,0,1-1.213-.122,2.1,2.1,0,0,1-.962-.856,2.416,2.416,0,0,1-.378-1.375,2.765,2.765,0,0,1,.493-1.494,4.456,4.456,0,0,1,1.33-1.27,4.025,4.025,0,0,1,2.511-.791A3.209,3.209,0,0,1,310.584,1060.955Zm.992-4.007.786,1a3.123,3.123,0,0,1,1.229-2.819,3.458,3.458,0,0,1,1.286-.645,2.341,2.341,0,0,1,1.213-.029,2.757,2.757,0,0,1,1.014.571,7.591,7.591,0,0,1,.9,1.01l3.269,4.168-1.139.9-2.924-3.727a8.577,8.577,0,0,0-1.013-1.149,1.494,1.494,0,0,0-1.008-.346,1.777,1.777,0,0,0-1.059.418,2.371,2.371,0,0,0-.754,1.016,1.889,1.889,0,0,0-.073,1.216,4.6,4.6,0,0,0,.844,1.459l2.825,3.6-1.14.9-5.283-6.736Zm8.3-7.352,5.9,6.2-.942.9-.9-.949a3.51,3.51,0,0,1,.161,1.508,1.607,1.607,0,0,1-.473.854,2.884,2.884,0,0,1-1.4.7l-.549-1.327a2.135,2.135,0,0,0,.968-.514,1.373,1.373,0,0,0,.417-.794,1.555,1.555,0,0,0-.158-.943,5.579,5.579,0,0,0-.991-1.392l-3.083-3.24Zm4.137-4.7,7.87,6.831,2.547-2.945,1.045.908-6.116,7.076-1.046-.909,2.546-2.944-7.871-6.832Zm13-10.407-2.374,4.136a2.877,2.877,0,0,0,1.674.333,2.213,2.213,0,0,0,1.619-1.137,2.309,2.309,0,0,0,.257-1.788A2.673,2.673,0,0,0,337.013,1034.485Zm-4.38,2.962-.919,1.2a3.64,3.64,0,0,1-1.107-2.149,3.95,3.95,0,0,1,.591-2.481,3.894,3.894,0,0,1,2.478-2,4.493,4.493,0,0,1,3.348.662,4.717,4.717,0,0,1,2.343,2.629,3.762,3.762,0,0,1-.4,3.092,3.637,3.637,0,0,1-2.4,1.844,4.626,4.626,0,0,1-3.383-.695c-.074-.043-.184-.11-.329-.2l3.174-5.531a3.273,3.273,0,0,0-2.264-.383,2.363,2.363,0,0,0-1.535,1.174,2.207,2.207,0,0,0-.312,1.389A2.788,2.788,0,0,0,332.633,1037.447Zm1.99-9.847,10.75,4.87-.6,1.323-10.75-4.869Zm6.906-5.91a4.433,4.433,0,0,0-2.233-.316,2.071,2.071,0,0,0-1.395,3.216,3.74,3.74,0,0,0,2.1,1.445,3.8,3.8,0,0,0,2.548.164,2.023,2.023,0,0,0,1.268-1.267,2.082,2.082,0,0,0-.255-1.821A3.6,3.6,0,0,0,341.529,1021.69Zm-4.115-1.378.433-1.283,11.175,3.789-.464,1.376-3.989-1.352a2.885,2.885,0,0,1,.335,2.591,3.609,3.609,0,0,1-.778,1.317,3.076,3.076,0,0,1-1.217.813,4.316,4.316,0,0,1-1.541.23,5.657,5.657,0,0,1-1.725-.312,4.871,4.871,0,0,1-2.861-2.118,3.407,3.407,0,0,1-.3-2.858,2.725,2.725,0,0,1,1.952-1.847Zm5.574-3.872a10.778,10.778,0,0,1,0-2.439,5.481,5.481,0,0,0,.005-1.3,1.281,1.281,0,0,0-.327-.663,1.227,1.227,0,0,0-.624-.353,1.214,1.214,0,0,0-1.032.213,1.9,1.9,0,0,0-.663,1.168,3,3,0,0,0,.021,1.538,2.248,2.248,0,0,0,.752,1.16,3.469,3.469,0,0,0,1.352.552Zm-3.156-.611a5.42,5.42,0,0,1-.6-1.736,4.477,4.477,0,0,1,.084-1.627,3.123,3.123,0,0,1,1.157-1.961,2.253,2.253,0,0,1,1.877-.345,2.347,2.347,0,0,1,1.052.537,2.394,2.394,0,0,1,.639.919,3.542,3.542,0,0,1,.228,1.126,10.958,10.958,0,0,1-.079,1.309,13.284,13.284,0,0,0-.1,2.637c.192.05.314.081.365.093a1.583,1.583,0,0,0,1.3-.122,2.442,2.442,0,0,0,.849-1.5,2.578,2.578,0,0,0-.011-1.558,2.179,2.179,0,0,0-1.077-.991l.512-1.339a3.518,3.518,0,0,1,1.291.953,2.828,2.828,0,0,1,.551,1.449,5.781,5.781,0,0,1-.143,1.966,5.161,5.161,0,0,1-.653,1.685,2.031,2.031,0,0,1-1.923,1.058,8.363,8.363,0,0,1-1.313-.231l-1.873-.433a20.739,20.739,0,0,0-2.507-.486,3.294,3.294,0,0,0-1.086.113l.342-1.48A3.223,3.223,0,0,1,339.832,1015.829Zm1.659-6.961-1.294.034a5.447,5.447,0,0,1,.009-1.1,2.476,2.476,0,0,1,.4-1.184,1.419,1.419,0,0,1,.728-.523,5.24,5.24,0,0,1,1.722.042l4.887.623.135-1.065,1.111.142-.135,1.064,2.1.268.681,1.551-2.962-.377-.182,1.441-1.112-.141.183-1.442-4.969-.633a2.5,2.5,0,0,0-.8-.025.605.605,0,0,0-.312.211.978.978,0,0,0-.166.477A4.646,4.646,0,0,0,341.491,1008.868Zm-.562-6.944,8.527.649-.11,1.449-8.526-.649Zm10.121.771,1.642.125-.11,1.449-1.642-.126Zm-9.924-6.28,8.548.216-.033,1.3-1.309-.033a3.5,3.5,0,0,1,1.176.954,1.615,1.615,0,0,1,.268.94,2.891,2.891,0,0,1-.5,1.482l-1.324-.551a2.137,2.137,0,0,0,.324-1.048,1.378,1.378,0,0,0-.264-.858,1.551,1.551,0,0,0-.777-.556,5.578,5.578,0,0,0-1.682-.285l-4.467-.113Zm4.14-4.008a10.711,10.711,0,0,1-.721-2.329,5.506,5.506,0,0,0-.385-1.246,1.277,1.277,0,0,0-.508-.535,1.261,1.261,0,0,0-1.622.361,1.913,1.913,0,0,0-.286,1.313,3.016,3.016,0,0,0,.477,1.462,2.246,2.246,0,0,0,1.063.882,3.441,3.441,0,0,0,1.456.123Zm-3.194.36a5.445,5.445,0,0,1-1.084-1.48,4.473,4.473,0,0,1-.4-1.578,3.125,3.125,0,0,1,.521-2.217,2.257,2.257,0,0,1,1.69-.89,2.339,2.339,0,0,1,1.163.2,2.388,2.388,0,0,1,.884.686,3.539,3.539,0,0,1,.552,1.007,10.76,10.76,0,0,1,.315,1.273,13.236,13.236,0,0,0,.691,2.546c.2-.009.324-.016.376-.02a1.586,1.586,0,0,0,1.209-.506,2.44,2.44,0,0,0,.362-1.689,2.566,2.566,0,0,0-.473-1.484,2.176,2.176,0,0,0-1.322-.625l.089-1.43a3.494,3.494,0,0,1,1.516.524,2.823,2.823,0,0,1,.957,1.218,5.753,5.753,0,0,1,.449,1.92,5.194,5.194,0,0,1-.122,1.8,2.369,2.369,0,0,1-.57,1.056,2.316,2.316,0,0,1-.951.528,8.362,8.362,0,0,1-1.323.172l-1.917.146a20.729,20.729,0,0,0-2.536.285,3.269,3.269,0,0,0-1,.432l-.115-1.515A3.226,3.226,0,0,1,342.072,992.767Zm-3.1-14.544,11.612-2.078.255,1.43-4.18.748a3.212,3.212,0,0,1,1.611,2.306,3.431,3.431,0,0,1-.079,1.685,2.2,2.2,0,0,1-.841,1.165,4.778,4.778,0,0,1-1.831.633l-5.329.953-.255-1.43,5.323-.953a2.254,2.254,0,0,0,1.473-.738,1.746,1.746,0,0,0,.254-1.393,2.33,2.33,0,0,0-.539-1.127,1.9,1.9,0,0,0-1.034-.635,4.172,4.172,0,0,0-1.591.042l-4.6.822Zm2.893-4.5.126,1.613a5.241,5.241,0,0,1-3.339-.733,4.853,4.853,0,0,1-1.955-2.631,5.6,5.6,0,0,1-.257-3.19,4.844,4.844,0,0,1,1.546-2.444,8.033,8.033,0,0,1,2.794-1.606,6.934,6.934,0,0,1,3.269-.365,4.83,4.83,0,0,1,2.615,1.231,5.84,5.84,0,0,1,1.589,2.483,4.838,4.838,0,0,1,.1,3.111,4.68,4.68,0,0,1-1.86,2.408l-.834-1.337a3.651,3.651,0,0,0,1.393-1.73,3.172,3.172,0,0,0-.072-2.05,3.811,3.811,0,0,0-1.343-1.944,3.434,3.434,0,0,0-2.067-.653,7.023,7.023,0,0,0-2.265.376,7.2,7.2,0,0,0-2.347,1.257,3.269,3.269,0,0,0-1.153,1.829,3.807,3.807,0,0,0,.114,2.073,3.348,3.348,0,0,0,1.425,1.858A3.87,3.87,0,0,0,341.865,973.72Z" fill="#021a60"></path>
      <g id="Group_14" data-name="Group 14">
        <path id="Path_69" data-name="Path 69" d="M205.881,1134.64s4.2-.567.564-4.046c0,0-27.94-19.754-45.24-23.778,0,0,8.032,14.7,9.732,20.584,0,0-16.991,2.786-22.243,7.43,8.966,1.242,25.133,8.933,33.055,14.7Z" fill="#ffca18" fill-rule="evenodd"></path>
        <g id="Group_13" data-name="Group 13" clip-path="url(#clip-path-2)">
          <rect id="Rectangle_10" data-name="Rectangle 10" width="68.283" height="53.43" transform="matrix(0.982, -0.187, 0.187, 0.982, 140.856, 1108.306)" fill="#ffca18"></rect>
        </g>
      </g>
      <g id="Group_16" data-name="Group 16">
        <path id="Path_71" data-name="Path 71" d="M322.579,1134.64s-4.2-.567-.564-4.046c0,0,27.94-19.754,45.24-23.778,0,0-8.032,14.7-9.732,20.584,0,0,16.991,2.786,22.243,7.43-8.965,1.242-25.133,8.933-33.055,14.7Z" fill="#ffca18" fill-rule="evenodd"></path>
        <g id="Group_15" data-name="Group 15" clip-path="url(#clip-path-3)">
          <rect id="Rectangle_11" data-name="Rectangle 11" width="68.283" height="53.43" transform="matrix(0.982, -0.187, 0.187, 0.982, 310.544, 1108.306)" fill="#ffca18"></rect>
        </g>
      </g>
      <path id="Path_73" data-name="Path 73" d="M207.094,1134.118,188.6,1166.743s-21.578-11.969-20.807-16.6c0,0,9.44-5.4,18.88-24.516,0,0,.385-2.9,8.284,2.509,0,0,10.6,7.336,12.138,5.985" fill="#011b60" fill-rule="evenodd"></path>
      <path id="Path_74" data-name="Path 74" d="M320.936,1133.925l18.5,32.625s21.577-11.969,20.807-16.6c0,0-9.441-5.405-18.88-24.517,0,0-.386-2.9-8.285,2.509,0,0-10.6,7.337-12.138,5.985" fill="#011b60" fill-rule="evenodd"></path>
      <g id="Group_19" data-name="Group 19">
        <g id="Group_18" data-name="Group 18">
          <path id="Path_75" data-name="Path 75" d="M188.272,1126.5s-2.189,1.686,5.919,6.716c0,0,23.621,17.219,45.5,20.572s45.421,6.7,84.313-13.586c7.851-4.517,12.725-6.947,15.87-12.407a92.335,92.335,0,0,0,18.665,24.565s2.739.837-10.39,9.04c0,0-30.947,25.768-87.592,25.992,0,0-50.4-1.117-87.643-31.06-4.922-3.63-4.5-4.105-3.715-4.736a54.977,54.977,0,0,0,6.479-5.814c3.257-4.592,7.26-9.7,10.039-14.457,1.029-1.761,1.805-3.411,2.551-4.825" fill="#ffca18" fill-rule="evenodd"></path>
          <g id="Group_17" data-name="Group 17" clip-path="url(#clip-path-4)">
            <rect id="Rectangle_12" data-name="Rectangle 12" width="201.257" height="95.918" transform="translate(156.824 1128.623) rotate(-10.763)" fill="#ffca18"></rect>
          </g>
        </g>
      </g>
      <path id="Path_77" data-name="Path 77" d="M325.9,1157.964a3.265,3.265,0,0,0,1.05,1.3,1.4,1.4,0,0,0,1.459.052,1.366,1.366,0,0,0,.7-1.005,2.556,2.556,0,0,0-.379-1.666,2.793,2.793,0,0,0-1.218-1.346,1.379,1.379,0,0,0-1.242.056,1.4,1.4,0,0,0-.729,1,2.419,2.419,0,0,0,.356,1.612m6.126.88-1.523.819-.491-.916a2.9,2.9,0,0,1-.472,1.288,2.584,2.584,0,0,1-.9.832,2.7,2.7,0,0,1-2.309.124,4.008,4.008,0,0,1-2.062-2.008,3.966,3.966,0,0,1-.547-2.816,2.767,2.767,0,0,1,1.444-1.84,2.65,2.65,0,0,1,2.273-.1l-1.662-3.106,1.643-.883Zm-10.522.8a1.807,1.807,0,0,0-.906-.941,1.271,1.271,0,0,0-1.057.03,1.3,1.3,0,0,0-.721.837,1.748,1.748,0,0,0,.166,1.267Zm.71,1.761,1.82-.515a3.071,3.071,0,0,1-.356,1.9,3.347,3.347,0,0,1-1.523,1.315,3.154,3.154,0,0,1-2.979.075,4.064,4.064,0,0,1-1.674-1.911,3.923,3.923,0,0,1-.348-2.886,3.014,3.014,0,0,1,1.672-1.9,3.126,3.126,0,0,1,2.69-.121,4.623,4.623,0,0,1,2.151,2.52l-4.223,2a1.9,1.9,0,0,0,.961.978,1.4,1.4,0,0,0,1.167-.039,1.137,1.137,0,0,0,.563-.531A1.479,1.479,0,0,0,322.211,1161.4Zm-7.392,1.3a1.811,1.811,0,0,0-.854-.989,1.27,1.27,0,0,0-1.058-.027,1.3,1.3,0,0,0-.764.8,1.744,1.744,0,0,0,.1,1.274Zm.614,1.8,1.846-.416a3.076,3.076,0,0,1-.459,1.878,3.348,3.348,0,0,1-1.592,1.23,3.148,3.148,0,0,1-2.978-.087,4.055,4.055,0,0,1-1.569-2,3.927,3.927,0,0,1-.192-2.9,3.014,3.014,0,0,1,1.771-1.8,3.123,3.123,0,0,1,2.694.025,4.626,4.626,0,0,1,2.012,2.633l-4.324,1.768a1.893,1.893,0,0,0,.907,1.029,1.4,1.4,0,0,0,1.166.024,1.138,1.138,0,0,0,.591-.5A1.487,1.487,0,0,0,315.433,1164.5Zm-12.934-1.366,2.093,6.118,1.385-.476a5.43,5.43,0,0,0,1.09-.474,1.785,1.785,0,0,0,.617-.642,2.048,2.048,0,0,0,.18-1.057,6.334,6.334,0,0,0-.39-1.758,5.82,5.82,0,0,0-.751-1.578,2.238,2.238,0,0,0-.832-.715,1.861,1.861,0,0,0-1.008-.138,8.724,8.724,0,0,0-1.552.434Zm-2.4-.92,3.4-1.167a6.99,6.99,0,0,1,1.812-.425,3.232,3.232,0,0,1,1.679.376,4.235,4.235,0,0,1,1.393,1.194,7.277,7.277,0,0,1,1.047,2.079,6.45,6.45,0,0,1,.389,2.064,4.288,4.288,0,0,1-.427,1.971,3.446,3.446,0,0,1-1.051,1.187,5.94,5.94,0,0,1-1.578.76l-3.5,1.2Zm-5.746,9.1-.5-1.8,3.542-.984.5,1.8Zm-10.1,1.046a3.3,3.3,0,0,0,.592,1.564,1.409,1.409,0,0,0,1.372.5,1.37,1.37,0,0,0,.981-.735,2.562,2.562,0,0,0,.156-1.7,2.8,2.8,0,0,0-.738-1.658,1.381,1.381,0,0,0-1.2-.334,1.4,1.4,0,0,0-1,.718A2.427,2.427,0,0,0,284.247,1172.363Zm5.548,2.747-1.7.3-.182-1.023a2.907,2.907,0,0,1-.849,1.077,2.575,2.575,0,0,1-1.117.508,2.692,2.692,0,0,1-2.232-.6,4.014,4.014,0,0,1-1.335-2.552,3.957,3.957,0,0,1,.356-2.847,2.759,2.759,0,0,1,1.943-1.3,2.645,2.645,0,0,1,2.192.612l-.614-3.47,1.836-.327Zm-9.86,1.642-1.845.267-1.007-7.009,1.711-.247.143,1a2.949,2.949,0,0,1,.662-1.039,1.509,1.509,0,0,1,.771-.335,2.393,2.393,0,0,1,1.269.173l-.341,1.7a1.619,1.619,0,0,0-.912-.178,1.039,1.039,0,0,0-.63.309,1.484,1.484,0,0,0-.314.835,11.194,11.194,0,0,0,.183,2.37Zm-8.84-2.654a2.359,2.359,0,0,0,.619,1.572,1.62,1.62,0,0,0,2.446-.188,2.4,2.4,0,0,0,.369-1.661,2.343,2.343,0,0,0-.616-1.558,1.557,1.557,0,0,0-1.262-.466,1.576,1.576,0,0,0-1.184.654A2.362,2.362,0,0,0,271.1,1174.1Zm-1.921.048a3.827,3.827,0,0,1,.319-1.838,3.148,3.148,0,0,1,1.194-1.43,3.854,3.854,0,0,1,1.836-.605,3.516,3.516,0,0,1,2.7.841,3.616,3.616,0,0,1,1.222,2.553,3.671,3.671,0,0,1-.826,2.738,3.492,3.492,0,0,1-2.515,1.254,4.094,4.094,0,0,1-1.88-.3,3.021,3.021,0,0,1-1.434-1.185A4.3,4.3,0,0,1,269.174,1174.146Zm-10.54,3.783-2.38-9.747,2.029-.018,1.51,6.7,1.719-6.726,2.346-.021,1.763,6.808,1.423-6.837,1.981-.018-2.261,9.79-2.109.019-1.986-7.287-1.871,7.321Zm-9.618-3.413.173-1.861,3.661.342-.173,1.862Zm-14.464-6.977,1.683.331-.185.948a2.775,2.775,0,0,1,2.372-.671,2.37,2.37,0,0,1,1.1.5,2.142,2.142,0,0,1,.639.988,3.263,3.263,0,0,1,1.149-.636,2.464,2.464,0,0,1,1.183-.053,2.563,2.563,0,0,1,1.23.565,1.93,1.93,0,0,1,.61,1.067,3.993,3.993,0,0,1-.093,1.475l-.869,4.435-1.83-.36.777-3.965a2.987,2.987,0,0,0,.072-1.369.89.89,0,0,0-.707-.547,1.29,1.29,0,0,0-.772.091,1.359,1.359,0,0,0-.626.594,5.09,5.09,0,0,0-.429,1.405l-.653,3.332-1.83-.361.745-3.8a5.367,5.367,0,0,0,.157-1.325.848.848,0,0,0-.216-.5.973.973,0,0,0-.529-.251,1.354,1.354,0,0,0-.806.077,1.275,1.275,0,0,0-.615.565,4.972,4.972,0,0,0-.427,1.4l-.66,3.371-1.831-.36Zm-6.931,1.805a2.362,2.362,0,0,0,.067,1.688,1.583,1.583,0,0,0,1.046.859,1.557,1.557,0,0,0,1.326-.229,2.393,2.393,0,0,0,.9-1.446,2.343,2.343,0,0,0-.07-1.675,1.561,1.561,0,0,0-1.038-.857,1.578,1.578,0,0,0-1.332.227A2.357,2.357,0,0,0,227.621,1169.344Zm-1.83-.59a3.83,3.83,0,0,1,.906-1.629,3.134,3.134,0,0,1,1.6-.956,3.843,3.843,0,0,1,1.932.035,3.525,3.525,0,0,1,2.271,1.684,3.622,3.622,0,0,1,.314,2.814,3.667,3.667,0,0,1-1.68,2.313,3.488,3.488,0,0,1-2.787.353,4.092,4.092,0,0,1-1.677-.9,3.016,3.016,0,0,1-.963-1.592A4.3,4.3,0,0,1,225.791,1168.754Zm-5.829-1.982a3.279,3.279,0,0,0-.225,1.658,1.412,1.412,0,0,0,.963,1.1,1.366,1.366,0,0,0,1.213-.176,2.559,2.559,0,0,0,.949-1.42,2.8,2.8,0,0,0,.143-1.811,1.38,1.38,0,0,0-.893-.867,1.394,1.394,0,0,0-1.222.151A2.417,2.417,0,0,0,219.962,1166.772Zm3.563,5.071-1.641-.55.329-.985a2.9,2.9,0,0,1-1.259.539,2.576,2.576,0,0,1-1.224-.088,2.7,2.7,0,0,1-1.672-1.6,4.012,4.012,0,0,1,.044-2.88,3.96,3.96,0,0,1,1.671-2.33,2.756,2.756,0,0,1,2.325-.208,2.655,2.655,0,0,1,1.634,1.587l1.115-3.342,1.769.592Zm-13.092-6.873,1.851.44a1.347,1.347,0,0,0,.142.944,1.628,1.628,0,0,0,.844.646,1.851,1.851,0,0,0,1.111.163.6.6,0,0,0,.415-.374.494.494,0,0,0,.008-.377,1.521,1.521,0,0,0-.486-.465,10.092,10.092,0,0,1-2.318-1.922,1.831,1.831,0,0,1-.183-1.8,1.966,1.966,0,0,1,1.253-1.166,3.368,3.368,0,0,1,2.318.26,3.913,3.913,0,0,1,1.821,1.25,2.442,2.442,0,0,1,.374,1.67l-1.75-.356a1.106,1.106,0,0,0-.161-.754,1.573,1.573,0,0,0-.757-.545,2.051,2.051,0,0,0-1.065-.207.44.44,0,0,0-.339.272.416.416,0,0,0,.045.387,7.1,7.1,0,0,0,1.428,1.146,5.212,5.212,0,0,1,1.626,1.558,1.725,1.725,0,0,1,.024,1.512,2.134,2.134,0,0,1-1.379,1.247,3.587,3.587,0,0,1-2.49-.251,3.982,3.982,0,0,1-1.9-1.4A2.7,2.7,0,0,1,210.433,1164.97Zm-3.613.631,2.837-6.485,1.709.751-2.838,6.484Zm3.22-7.359.7-1.587,1.708.75-.694,1.587Zm-13.544,2.569,2.1-9.812,1.834.869-1.554,6.688,4.473-5.3,2.12,1.007-1.375,6.9,4.255-5.532,1.791.849-6.293,7.823-1.906-.9,1.381-7.426-4.868,5.771Z" fill="#001a60"></path>
      <g id="Group_20" data-name="Group 20">
        <path id="Path_78" data-name="Path 78" d="M262.818,1006.53a.949.949,0,0,1,.67.252,3.366,3.366,0,0,0,2.011,1.005,3.289,3.289,0,0,0,2.43-1.257.9.9,0,0,1,.587-.251l12.987,1.173-1.592-2.849-5.866-.754c-6.116-.922-7.959,2.011-7.959,2.094a.817.817,0,0,1-.754.336.631.631,0,0,1-.587-.419.082.082,0,0,0-.084-.084c-1.759-3.435-10.222-1.76-13.406-.754h-.168l-1.34,2.346Z" fill="#ffca18" fill-rule="evenodd"></path>
        <path id="Path_79" data-name="Path 79" d="M259.215,1002.257a8.69,8.69,0,0,1,5.446,1.424l.168-18.182c-.419-.754-2.011-3.1-6.787-3.1h-.419a25.8,25.8,0,0,0-6.033,1.006l.168,19.942A30.078,30.078,0,0,1,259.215,1002.257Z" fill="#ffca18" fill-rule="evenodd"></path>
        <path id="Path_80" data-name="Path 80" d="M274.3,1002.424l5.111.587-.167-19.607c-2.43-.5-11.312-2.262-12.9,2.262a.082.082,0,0,1-.084.084l-.167,18.1C267.426,1002.843,270.024,1001.754,274.3,1002.424Z" fill="#ffca18" fill-rule="evenodd"></path>
        <path id="Path_81" data-name="Path 81" d="M282.09,1005.525v-17.68l-1.34-2.681.167,18.266Z" fill="#ffca18" fill-rule="evenodd"></path>
        <path id="Path_82" data-name="Path 82" d="M265.5,963.778a33.116,33.116,0,1,0,33.05,33.116A33.083,33.083,0,0,0,265.5,963.778Zm20.358,47.863a.8.8,0,0,1-.586.168l-15.837-1.508a6.439,6.439,0,0,1-7.29,0l-16.422,1.592a.506.506,0,0,1-.5-.252.6.6,0,0,1-.251-.5l.083-25.388a.758.758,0,0,1,.252-.586.613.613,0,0,1,.5-.168h2.766l1.173-2.6.419.168c0-.251.167-.335.418-.419a23.668,23.668,0,0,1,7.039-1.173,1.062,1.062,0,0,1,.5-.084c4.189,0,6.368,1.76,7.457,3.017,3.351-4.776,14.161-1.927,14.579-1.76.168,0,.335.168.419.251l.335.419.336-.167,1.089,2.179,2.933.167a.739.739,0,0,1,.754.67l.083,25.388A.758.758,0,0,1,285.86,1011.641Z" fill="#ffca18" fill-rule="evenodd"></path>
        <path id="Path_83" data-name="Path 83" d="M283.011,986.337l.5,1.005a.632.632,0,0,1,.084.335v20.613a.8.8,0,0,1-.587.754h-.167c-.084,0-.252-.084-.336-.084v.084l-13.741-1.257a4.537,4.537,0,0,1-3.184,1.508h-.168a5.027,5.027,0,0,1-2.849-1.257l-13.825.922v-.168a.307.307,0,0,1-.251.084c-.084,0-.084,0-.168-.084a.71.71,0,0,1-.586-.67l-.168-20.612a.63.63,0,0,1,.084-.335l.335-.671h-1.424l-.168,23.8,15.836-1.509a1.189,1.189,0,0,1,.5.168,5.279,5.279,0,0,0,6.2,0,.641.641,0,0,1,.419-.168l15.25,1.425-.084-23.8Z" fill="#ffca18" fill-rule="evenodd"></path>
        <path id="Path_84" data-name="Path 84" d="M250.166,1003.681l.084.083-.168-18.517-1.005,2.43.168,17.68Z" fill="#ffca18" fill-rule="evenodd"></path>
      </g>
    </g>
    <g id="Group_339" data-name="Group 339" transform="translate(445.291 -3826.83)">
      <g id="Group_47" data-name="Group 47">
        <path id="Path_106" data-name="Path 106" d="M1016.989,843.782V894.01h-4.882q-4.395-17.436-9.672-24.974a36.806,36.806,0,0,0-14.6-12.091c-3.441-1.68-9.486-2.474-18.089-2.474H955.979V997.5q0,14.214,1.535,17.785a14.253,14.253,0,0,0,6.138,6.209c3.069,1.82,7.208,2.707,12.462,2.707h6.139v5.042H885.528V1024.2h6.139c5.347,0,9.672-.981,12.927-2.894a12.808,12.808,0,0,0,5.58-6.582q1.535-3.222,1.535-17.225V854.471H898.316c-12.416,0-21.484,2.614-27.111,7.935q-11.858,11.064-14.973,31.6h-5.161V843.782Zm-210.744-4.2v64.234h-5.3q-6-25.137-22.368-38.558a56.938,56.938,0,0,0-37.062-13.4,54.41,54.41,0,0,0-31.715,9.989,58,58,0,0,0-21.111,26.142q-8.58,20.656-8.6,45.934,0,24.859,6.277,45.328c4.186,13.631,10.7,23.948,19.625,30.9,8.881,7,20.414,10.457,34.6,10.457a67.032,67.032,0,0,0,31.948-7.656q14.508-7.632,30.6-26.375v16.012q-15.555,16.245-32.366,23.574c-11.254,4.9-24.32,7.329-39.341,7.329q-29.5,0-52.5-11.9a84.122,84.122,0,0,1-35.435-34.171,96.288,96.288,0,0,1-12.463-47.474,98.319,98.319,0,0,1,13.857-50.323,97.225,97.225,0,0,1,37.3-36.925,100.611,100.611,0,0,1,49.943-13.118q19.461,0,41.154,8.45c8.371,3.268,13.672,4.948,15.95,4.948a10.291,10.291,0,0,0,7.534-3.221c2.138-2.147,3.534-5.555,4.185-10.177Zm-305.562,9.29v-5.087H598.9v5.087h-6c-5.44,0-9.812.934-13.067,2.848a13.236,13.236,0,0,0-5.441,6.582q-1.534,3.291-1.534,17.226V966.32q0,26.677-5.3,38.791c-3.535,8.076-9.812,14.8-18.88,20.26q-13.531,8.124-32.6,8.123-23.3,0-37.667-12.324-14.439-12.324-14.415-27.216c0-6.395,1.953-11.53,5.859-15.5a19.376,19.376,0,0,1,14.323-5.976,19.572,19.572,0,0,1,13.95,5.322,17.45,17.45,0,0,1,5.673,13.164,20.826,20.826,0,0,1-.975,6.675,48.552,48.552,0,0,1-4.279,6.909c-2.511,3.688-3.72,6.3-3.72,7.89,0,2.333,1.162,4.387,3.534,6.114,3.441,2.568,7.951,3.875,13.486,3.875a15.166,15.166,0,0,0,9.672-3.034c2.512-2.008,4.325-5.135,5.394-9.383,1.023-4.2,1.534-16.012,1.534-35.337V875.525q0-14.216-1.534-17.786a14.242,14.242,0,0,0-6.138-6.209c-3.069-1.774-7.162-2.661-12.323-2.661Z" fill="#ffca18"></path>
        <path id="Path_107" data-name="Path 107" d="M1017.691,1060.488v19.1H1016.2a24.276,24.276,0,0,0-2.616-8.756,13.539,13.539,0,0,0-5.387-5.171,14.776,14.776,0,0,0-7.214-1.919,9.807,9.807,0,0,0-6.978,2.586,7.862,7.862,0,0,0-2.756,5.88,6.977,6.977,0,0,0,1.744,4.6q2.512,3.064,11.963,8.145a80.283,80.283,0,0,1,10.524,6.38,15.468,15.468,0,0,1,4.348,5.226,13.908,13.908,0,0,1,1.523,6.311,14.34,14.34,0,0,1-4.846,10.813,17.532,17.532,0,0,1-12.476,4.546,25.716,25.716,0,0,1-4.514-.376,44.119,44.119,0,0,1-5.2-1.473,23.049,23.049,0,0,0-5.014-1.293,2.158,2.158,0,0,0-1.606.612,4.963,4.963,0,0,0-.872,2.53h-1.5V1099.3h1.5a26.876,26.876,0,0,0,2.853,8.9,13.711,13.711,0,0,0,5.455,4.906,16.912,16.912,0,0,0,8.044,1.946,11.441,11.441,0,0,0,8.017-2.682,8.358,8.358,0,0,0,2.936-6.352,8.759,8.759,0,0,0-1.107-4.115,12.316,12.316,0,0,0-3.477-3.864,98.394,98.394,0,0,0-8.64-5.2,84.15,84.15,0,0,1-10.038-6.324,17.4,17.4,0,0,1-4.528-5.213,13.065,13.065,0,0,1-1.536-6.282,13.584,13.584,0,0,1,4.541-10.231,16.159,16.159,0,0,1,11.561-4.294,22.979,22.979,0,0,1,9.291,2.154,9.477,9.477,0,0,0,3.2,1.015,2.432,2.432,0,0,0,1.731-.626,5.212,5.212,0,0,0,1.08-2.543Zm-99.18,1.251h14.926l33.633,41.42v-31.844c0-3.391-.389-5.518-1.136-6.352a6.028,6.028,0,0,0-4.75-1.71h-1.91v-1.514h19.149v1.514H976.47c-2.326,0-3.973.709-4.942,2.113-.6.876-.886,2.85-.886,5.949v46.536h-1.468l-36.264-44.465V1107.4c0,3.391.361,5.5,1.094,6.352a6.09,6.09,0,0,0,4.749,1.709h1.939v1.5H921.557v-1.5h1.9c2.353,0,4.015-.709,5-2.126.595-.862.886-2.85.886-5.935v-38.405a25.372,25.372,0,0,0-3.628-3.711,11.539,11.539,0,0,0-7.2-2.03Zm-29.285,1.709a14.493,14.493,0,0,0-11.853,5.5q-5.545,6.838-5.553,20.03,0,13.53,5.761,20.808a14.206,14.206,0,0,0,11.686,5.545,15.933,15.933,0,0,0,12.793-6.074q5.049-6.068,5.055-19.14,0-14.157-5.567-21.127Q897.082,1063.448,889.226,1063.448Zm.76-2.96a24.892,24.892,0,0,1,18.569,8.158q7.85,8.175,7.85,20.377,0,12.594-7.92,20.892a26.362,26.362,0,0,1-38.229.208q-7.727-8.111-7.726-20.975,0-13.155,8.917-21.461A26.283,26.283,0,0,1,889.986,1060.488Zm-32.4,54.972v1.5H834.007v-1.5h1.952q3.405,0,4.942-2c.651-.862.983-2.961.983-6.269v-35.68a18.5,18.5,0,0,0-.525-5.532,3.712,3.712,0,0,0-1.662-1.752,7.673,7.673,0,0,0-3.738-.973h-1.952v-1.514h23.579v1.514h-1.993c-2.244,0-3.877.667-4.9,1.988-.678.876-1.024,2.961-1.024,6.269v35.68a18.53,18.53,0,0,0,.525,5.532,3.685,3.685,0,0,0,1.7,1.752,7.444,7.444,0,0,0,3.7.986Zm-28.315-53.721.61,12.954h-1.552a15.265,15.265,0,0,0-1.218-4.893,8.161,8.161,0,0,0-3.338-3.475,11.59,11.59,0,0,0-5.5-1.125h-7.754v42.2c0,3.391.374,5.5,1.094,6.352a6.09,6.09,0,0,0,4.749,1.709h1.911v1.5H794.946v-1.5H796.9q3.49,0,4.944-2.126c.6-.862.9-2.85.9-5.935v-42.2h-6.618a18.553,18.553,0,0,0-5.469.569,7.521,7.521,0,0,0-3.614,2.975,12.189,12.189,0,0,0-1.787,5.949h-1.537l.651-12.954Zm-68.442,1.514v-1.514h19.482v1.514h-2.078a5.569,5.569,0,0,0-4.984,2.725c-.568.847-.858,2.794-.858,5.865v22.393q0,8.319-1.634,12.885a16.182,16.182,0,0,1-6.453,7.866q-4.818,3.274-13.085,3.281-9.013,0-13.666-3.141a16.924,16.924,0,0,1-6.618-8.424c-.859-2.418-1.3-6.949-1.3-13.607V1071.51c0-3.392-.457-5.615-1.4-6.672s-2.437-1.585-4.514-1.585h-2.076v-1.514h23.774v1.514h-2.105c-2.271,0-3.9.709-4.873,2.155-.679.973-1.011,3.016-1.011,6.1v24.074a54.054,54.054,0,0,0,.58,7.367,15.946,15.946,0,0,0,2.133,6.477,11.555,11.555,0,0,0,4.445,3.823,15.2,15.2,0,0,0,7.117,1.514,19.586,19.586,0,0,0,9.65-2.362,12.61,12.61,0,0,0,5.83-6.047q1.557-3.69,1.565-12.482V1071.51c0-3.447-.389-5.6-1.135-6.463a5.975,5.975,0,0,0-4.709-1.794Zm-42.3-1.514.61,12.954h-1.551a15.291,15.291,0,0,0-1.218-4.893,8.178,8.178,0,0,0-3.338-3.475,11.594,11.594,0,0,0-5.5-1.125H699.78v42.2c0,3.391.375,5.5,1.094,6.352a6.094,6.094,0,0,0,4.75,1.709h1.91v1.5H684.2v-1.5h1.951q3.49,0,4.944-2.126c.595-.862.9-2.85.9-5.935v-42.2h-6.62a18.557,18.557,0,0,0-5.469.569,7.521,7.521,0,0,0-3.614,2.975,12.19,12.19,0,0,0-1.786,5.949h-1.537l.65-12.954Zm-50.1,53.721v1.5H644.853v-1.5H646.8q3.406,0,4.943-2c.65-.862.983-2.961.983-6.269v-35.68a18.442,18.442,0,0,0-.527-5.532,3.7,3.7,0,0,0-1.661-1.752,7.67,7.67,0,0,0-3.738-.973h-1.952v-1.514h23.579v1.514h-1.993a5.821,5.821,0,0,0-4.9,1.988c-.678.876-1.025,2.961-1.025,6.269v35.68a18.475,18.475,0,0,0,.527,5.532,3.678,3.678,0,0,0,1.7,1.752,7.444,7.444,0,0,0,3.7.986Zm-28.315-53.721.609,12.954h-1.55a15.288,15.288,0,0,0-1.219-4.893,8.17,8.17,0,0,0-3.337-3.475,11.6,11.6,0,0,0-5.5-1.125h-7.754v42.2c0,3.391.374,5.5,1.094,6.352a6.091,6.091,0,0,0,4.75,1.709h1.91v1.5H605.792v-1.5h1.952q3.49,0,4.944-2.126c.6-.862.9-2.85.9-5.935v-42.2h-6.618a18.553,18.553,0,0,0-5.469.569,7.527,7.527,0,0,0-3.615,2.975,12.189,12.189,0,0,0-1.786,5.949h-1.536l.65-12.954Zm-56.189-1.251v19.1h-1.495a24.238,24.238,0,0,0-2.616-8.756,13.543,13.543,0,0,0-5.386-5.171,14.775,14.775,0,0,0-7.215-1.919,9.808,9.808,0,0,0-6.978,2.586,7.862,7.862,0,0,0-2.756,5.88,6.969,6.969,0,0,0,1.746,4.6q2.512,3.064,11.963,8.145a80.391,80.391,0,0,1,10.523,6.38,15.454,15.454,0,0,1,4.347,5.226,13.894,13.894,0,0,1,1.523,6.311,14.34,14.34,0,0,1-4.846,10.813,17.528,17.528,0,0,1-12.475,4.546,25.7,25.7,0,0,1-4.514-.376,44.115,44.115,0,0,1-5.206-1.473,23.046,23.046,0,0,0-5.013-1.293,2.156,2.156,0,0,0-1.606.612,4.944,4.944,0,0,0-.872,2.53h-1.495V1099.3h1.495a26.88,26.88,0,0,0,2.852,8.9,13.708,13.708,0,0,0,5.456,4.906,16.909,16.909,0,0,0,8.044,1.946,11.445,11.445,0,0,0,8.018-2.682,8.359,8.359,0,0,0,2.934-6.352,8.759,8.759,0,0,0-1.107-4.115,12.313,12.313,0,0,0-3.476-3.864,98.572,98.572,0,0,0-8.64-5.2,84.182,84.182,0,0,1-10.039-6.324,17.382,17.382,0,0,1-4.527-5.213,13.065,13.065,0,0,1-1.537-6.282,13.581,13.581,0,0,1,4.542-10.231,16.157,16.157,0,0,1,11.561-4.294,22.979,22.979,0,0,1,9.291,2.154,9.483,9.483,0,0,0,3.2,1.015,2.429,2.429,0,0,0,1.73-.626,5.2,5.2,0,0,0,1.08-2.543Zm-99.18,1.251h14.927l33.632,41.42v-31.844c0-3.391-.388-5.518-1.136-6.352a6.026,6.026,0,0,0-4.749-1.71h-1.91v-1.514H544.66v1.514h-1.952c-2.326,0-3.973.709-4.943,2.113-.6.876-.886,2.85-.886,5.949v46.536h-1.467l-36.265-44.465V1107.4c0,3.391.361,5.5,1.1,6.352a6.086,6.086,0,0,0,4.748,1.709h1.938v1.5H487.794v-1.5h1.9c2.354,0,4.015-.709,5-2.126.594-.862.885-2.85.885-5.935v-38.405a25.427,25.427,0,0,0-3.627-3.711,11.544,11.544,0,0,0-7.2-2.03Zm-.928,53.721v1.5H460.24v-1.5h1.953q3.405,0,4.943-2c.651-.862.982-2.961.982-6.269v-35.68a18.456,18.456,0,0,0-.526-5.532,3.714,3.714,0,0,0-1.661-1.752,7.673,7.673,0,0,0-3.738-.973H460.24v-1.514h23.58v1.514h-1.994c-2.243,0-3.877.667-4.9,1.988-.678.876-1.025,2.961-1.025,6.269v35.68a18.44,18.44,0,0,0,.527,5.532,3.68,3.68,0,0,0,1.7,1.752,7.444,7.444,0,0,0,3.7.986Z" fill="#ffca18"></path>
        <g id="Group_46" data-name="Group 46">
          <g id="Group_45" data-name="Group 45">
            <rect id="Rectangle_16" data-name="Rectangle 16" width="555.927" height="4.494" transform="translate(461.922 1041.935)" fill="#ffca18"></rect>
          </g>
        </g>
      </g>
      <text id="_JCTCET_is_An_Autonomous_Institution_" data-name="(JCTCET is An Autonomous Institution)" transform="translate(460.234 1160.884)" fill="#ffca18" font-size="34.722" font-family="MyriadPro-Regular, Myriad Pro">
        <tspan x="0" y="0">(JCTCET is An Autonomous Institution)</tspan>
      </text>
    </g>
  </g>
</svg>
